<mxfile host="65bd71144e">
    <diagram id="7dSY6D3JL7LVz_y4Emw3" name="Page-1">
        <mxGraphModel dx="1066" dy="614" grid="1" gridSize="10" guides="1" tooltips="1" connect="1" arrows="1" fold="1" page="1" pageScale="1" pageWidth="4681" pageHeight="3300" background="#ffffff" math="0" shadow="0">
            <root>
                <mxCell id="0"/>
                <mxCell id="1" parent="0"/>
                <mxCell id="14" style="edgeStyle=none;html=1;entryX=1;entryY=0.5;entryDx=0;entryDy=0;fontFamily=Comic Sans MS;fontSize=16;strokeWidth=2;" edge="1" parent="1" source="2" target="7">
                    <mxGeometry relative="1" as="geometry"/>
                </mxCell>
                <mxCell id="23" style="edgeStyle=none;html=1;entryX=1;entryY=1;entryDx=0;entryDy=0;strokeWidth=2;fontFamily=Comic Sans MS;fontSize=16;endArrow=classic;endFill=1;" edge="1" parent="1" source="2" target="20">
                    <mxGeometry relative="1" as="geometry"/>
                </mxCell>
                <mxCell id="26" style="edgeStyle=none;html=1;entryX=1;entryY=0;entryDx=0;entryDy=0;strokeWidth=2;fontFamily=Comic Sans MS;fontSize=16;startArrow=none;startFill=0;endArrow=classic;endFill=1;" edge="1" parent="1" source="2" target="25">
                    <mxGeometry relative="1" as="geometry"/>
                </mxCell>
                <mxCell id="41" style="edgeStyle=none;html=1;entryX=1;entryY=0;entryDx=0;entryDy=0;strokeWidth=2;fontFamily=Comic Sans MS;fontSize=30;startArrow=none;startFill=0;endArrow=classic;endFill=1;" edge="1" parent="1" source="2" target="34">
                    <mxGeometry relative="1" as="geometry"/>
                </mxCell>
                <mxCell id="2" value="&lt;font style=&quot;font-size: 16px;&quot; face=&quot;Comic Sans MS&quot;&gt;:Game&lt;/font&gt;" style="shape=umlActor;verticalLabelPosition=bottom;verticalAlign=top;html=1;" vertex="1" parent="1">
                    <mxGeometry x="860" y="280" width="50" height="90" as="geometry"/>
                </mxCell>
                <mxCell id="19" style="edgeStyle=none;html=1;entryX=1;entryY=0.5;entryDx=0;entryDy=0;strokeWidth=2;fontFamily=Comic Sans MS;fontSize=16;endArrow=classic;endFill=1;" edge="1" parent="1" source="7" target="15">
                    <mxGeometry relative="1" as="geometry"/>
                </mxCell>
                <mxCell id="7" value="Deal Card&lt;br&gt;From Deck" style="ellipse;whiteSpace=wrap;html=1;fontFamily=Comic Sans MS;fontSize=16;" vertex="1" parent="1">
                    <mxGeometry x="620" y="285" width="140" height="80" as="geometry"/>
                </mxCell>
                <mxCell id="16" style="edgeStyle=none;html=1;entryX=0;entryY=0.5;entryDx=0;entryDy=0;fontFamily=Comic Sans MS;fontSize=16;strokeWidth=2;endArrow=none;endFill=0;startArrow=classic;startFill=1;" edge="1" parent="1" source="10" target="15">
                    <mxGeometry relative="1" as="geometry"/>
                </mxCell>
                <mxCell id="29" style="edgeStyle=none;html=1;entryX=0;entryY=0.5;entryDx=0;entryDy=0;strokeWidth=2;fontFamily=Comic Sans MS;fontSize=16;startArrow=none;startFill=0;endArrow=classic;endFill=1;" edge="1" parent="1" source="10" target="28">
                    <mxGeometry relative="1" as="geometry"/>
                </mxCell>
                <mxCell id="40" style="edgeStyle=none;html=1;entryX=0;entryY=0.5;entryDx=0;entryDy=0;strokeWidth=2;fontFamily=Comic Sans MS;fontSize=30;startArrow=none;startFill=0;endArrow=classic;endFill=1;" edge="1" parent="1" source="10" target="21">
                    <mxGeometry relative="1" as="geometry"/>
                </mxCell>
                <mxCell id="10" value="&lt;font style=&quot;font-size: 16px;&quot; face=&quot;Comic Sans MS&quot;&gt;:Player&lt;/font&gt;" style="shape=umlActor;verticalLabelPosition=bottom;verticalAlign=top;html=1;" vertex="1" parent="1">
                    <mxGeometry x="240" y="280" width="50" height="90" as="geometry"/>
                </mxCell>
                <mxCell id="15" value="Receive Card" style="ellipse;whiteSpace=wrap;html=1;fontFamily=Comic Sans MS;fontSize=16;" vertex="1" parent="1">
                    <mxGeometry x="370" y="285" width="140" height="80" as="geometry"/>
                </mxCell>
                <mxCell id="20" value="Request Player&lt;br&gt;To Show Hand" style="ellipse;whiteSpace=wrap;html=1;fontFamily=Comic Sans MS;fontSize=16;" vertex="1" parent="1">
                    <mxGeometry x="620" y="160" width="140" height="80" as="geometry"/>
                </mxCell>
                <mxCell id="24" style="edgeStyle=none;html=1;entryX=0;entryY=0.5;entryDx=0;entryDy=0;strokeWidth=2;fontFamily=Comic Sans MS;fontSize=16;endArrow=classic;endFill=1;" edge="1" parent="1" source="21" target="20">
                    <mxGeometry relative="1" as="geometry"/>
                </mxCell>
                <mxCell id="21" value="Player Show&lt;br&gt;Cards" style="ellipse;whiteSpace=wrap;html=1;fontFamily=Comic Sans MS;fontSize=16;" vertex="1" parent="1">
                    <mxGeometry x="400" y="160" width="140" height="80" as="geometry"/>
                </mxCell>
                <mxCell id="25" value="Request Player&lt;br&gt;To Give Result" style="ellipse;whiteSpace=wrap;html=1;fontFamily=Comic Sans MS;fontSize=16;" vertex="1" parent="1">
                    <mxGeometry x="600" y="390" width="140" height="80" as="geometry"/>
                </mxCell>
                <mxCell id="30" style="edgeStyle=none;html=1;entryX=0;entryY=0.5;entryDx=0;entryDy=0;strokeWidth=2;fontFamily=Comic Sans MS;fontSize=16;startArrow=none;startFill=0;endArrow=classic;endFill=1;" edge="1" parent="1" source="28" target="25">
                    <mxGeometry relative="1" as="geometry"/>
                </mxCell>
                <mxCell id="28" value="Player Gives&lt;br&gt;Result" style="ellipse;whiteSpace=wrap;html=1;fontFamily=Comic Sans MS;fontSize=16;" vertex="1" parent="1">
                    <mxGeometry x="410" y="390" width="140" height="80" as="geometry"/>
                </mxCell>
                <mxCell id="39" style="edgeStyle=none;html=1;strokeWidth=2;fontFamily=Comic Sans MS;fontSize=30;startArrow=none;startFill=0;endArrow=classic;endFill=1;" edge="1" parent="1" source="34" target="35">
                    <mxGeometry relative="1" as="geometry"/>
                </mxCell>
                <mxCell id="34" value="Compare Player Results" style="ellipse;whiteSpace=wrap;html=1;fontFamily=Comic Sans MS;fontSize=16;" vertex="1" parent="1">
                    <mxGeometry x="600" y="500" width="140" height="80" as="geometry"/>
                </mxCell>
                <mxCell id="35" value="Declare Player&lt;br&gt;As Winner" style="ellipse;whiteSpace=wrap;html=1;fontFamily=Comic Sans MS;fontSize=16;" vertex="1" parent="1">
                    <mxGeometry x="780" y="500" width="140" height="80" as="geometry"/>
                </mxCell>
            </root>
        </mxGraphModel>
    </diagram>
</mxfile>